<?xml version="1.0" encoding="UTF-8" ?>
<!DOCTYPE svg PUBLIC "-//W3C//DTD SVG 1.1//EN" "http://www.w3.org/Graphics/SVG/1.1/DTD/svg11.dtd">
<svg width="100pt" height="98pt" viewBox="0 0 100 98" version="1.1" xmlns="http://www.w3.org/2000/svg">
<g id="#ffa610ff">
<path fill="#ffa610" opacity="1.00" d=" M 49.41 6.56 C 51.97 5.88 54.45 7.12 56.59 8.39 C 65.46 13.54 74.41 18.56 83.27 23.73 C 85.85 25.16 87.37 28.11 87.14 31.04 C 87.17 42.00 87.29 52.97 87.15 63.94 C 87.38 66.95 85.05 69.35 82.60 70.71 C 73.25 76.01 63.97 81.42 54.59 86.67 C 52.14 88.13 49.01 87.81 46.65 86.30 C 37.53 81.13 28.46 75.88 19.35 70.69 C 16.90 69.36 14.65 66.94 14.86 63.96 C 14.73 52.99 14.79 42.01 14.80 31.04 C 14.61 28.14 16.03 25.19 18.58 23.73 C 27.47 18.54 36.47 13.55 45.37 8.39 C 46.66 7.67 47.95 6.88 49.41 6.56 M 50.48 27.07 C 50.01 28.88 49.53 30.69 49.06 32.50 C 46.76 31.93 44.48 31.28 42.17 30.75 C 41.96 31.63 41.55 33.40 41.34 34.28 C 42.64 34.93 45.23 34.86 45.25 36.81 C 44.01 42.26 42.45 47.64 40.92 53.01 C 39.68 52.80 38.46 52.53 37.24 52.29 C 36.64 53.59 36.03 54.90 35.43 56.20 C 37.68 56.81 39.93 57.41 42.19 58.02 C 41.73 59.89 41.25 61.75 40.90 63.65 C 41.73 63.84 43.38 64.21 44.20 64.40 C 44.66 62.64 45.13 60.87 45.58 59.11 C 46.50 59.25 47.42 59.43 48.32 59.66 C 47.81 61.49 47.33 63.32 46.81 65.15 C 47.99 65.43 49.17 65.70 50.36 65.98 C 50.80 64.17 51.27 62.38 51.73 60.58 C 54.33 60.84 57.07 61.44 59.61 60.51 C 64.52 58.63 66.19 50.68 61.12 47.92 C 64.23 46.79 66.10 43.15 64.91 40.02 C 63.96 37.29 60.97 36.31 58.63 35.11 C 59.10 33.23 59.60 31.36 59.95 29.46 C 59.15 29.25 57.54 28.83 56.73 28.62 C 56.11 30.44 55.64 32.31 55.10 34.16 C 54.45 33.98 53.15 33.63 52.51 33.45 C 53.00 31.60 53.50 29.76 53.98 27.92 C 52.82 27.63 51.65 27.35 50.48 27.07 Z" />
<path fill="#ffa610" opacity="1.00" d=" M 49.66 44.07 C 50.26 41.77 50.88 39.48 51.64 37.23 C 54.24 38.19 58.19 38.60 58.66 42.01 C 58.00 46.50 52.64 44.91 49.66 44.07 Z" />
<path fill="#ffa610" opacity="1.00" d=" M 46.75 54.90 C 47.41 52.40 48.10 49.91 48.81 47.42 C 52.06 48.47 58.21 49.20 57.22 53.96 C 55.00 57.70 50.08 55.55 46.75 54.90 Z" />
</g>
<g id="#ffffffff">
<path fill="#ffffff" opacity="1.00" d=" M 50.48 27.07 C 51.65 27.35 52.82 27.63 53.98 27.92 C 53.50 29.76 53.00 31.60 52.51 33.45 C 53.15 33.63 54.45 33.98 55.10 34.16 C 55.64 32.31 56.11 30.44 56.73 28.62 C 57.54 28.83 59.15 29.25 59.95 29.46 C 59.60 31.36 59.10 33.23 58.63 35.11 C 60.97 36.31 63.96 37.29 64.91 40.02 C 66.10 43.15 64.23 46.79 61.12 47.92 C 66.19 50.68 64.52 58.63 59.61 60.51 C 57.07 61.44 54.33 60.84 51.73 60.58 C 51.27 62.38 50.80 64.17 50.36 65.98 C 49.17 65.70 47.99 65.43 46.81 65.15 C 47.33 63.32 47.81 61.49 48.32 59.66 C 47.42 59.43 46.50 59.25 45.58 59.11 C 45.13 60.87 44.66 62.64 44.20 64.40 C 43.38 64.21 41.73 63.84 40.90 63.65 C 41.25 61.75 41.73 59.89 42.19 58.02 C 39.93 57.41 37.68 56.81 35.43 56.20 C 36.03 54.90 36.64 53.59 37.24 52.29 C 38.46 52.53 39.68 52.80 40.92 53.01 C 42.45 47.64 44.01 42.26 45.25 36.81 C 45.23 34.86 42.64 34.93 41.34 34.28 C 41.55 33.40 41.96 31.63 42.17 30.75 C 44.48 31.28 46.76 31.93 49.06 32.50 C 49.53 30.69 50.01 28.88 50.48 27.07 M 49.66 44.07 C 52.64 44.91 58.00 46.50 58.66 42.01 C 58.19 38.60 54.24 38.19 51.64 37.23 C 50.88 39.48 50.26 41.77 49.66 44.07 M 46.75 54.90 C 50.08 55.55 55.00 57.70 57.22 53.96 C 58.21 49.20 52.06 48.47 48.81 47.42 C 48.10 49.91 47.41 52.40 46.75 54.90 Z" />
</g>
</svg>
