<?xml version="1.0" encoding="UTF-8" ?>
<!DOCTYPE svg PUBLIC "-//W3C//DTD SVG 1.1//EN" "http://www.w3.org/Graphics/SVG/1.1/DTD/svg11.dtd">
<svg width="99pt" height="86pt" viewBox="0 0 99 86" version="1.1" xmlns="http://www.w3.org/2000/svg">
<g id="#444e8cff">
<path fill="#444e8c" opacity="1.00" d=" M 45.32 1.12 C 47.67 -0.07 50.43 -0.22 52.68 1.30 C 59.38 5.07 66.06 8.90 72.72 12.74 C 70.90 13.42 69.14 14.30 67.80 15.73 C 63.39 20.06 59.26 24.68 54.53 28.68 C 52.82 25.79 51.07 22.94 49.41 20.02 C 44.86 27.01 40.82 34.32 36.39 41.37 C 37.29 41.92 38.20 42.45 39.12 42.99 C 38.69 43.33 37.83 44.03 37.40 44.38 L 37.01 44.67 C 39.89 48.75 42.74 52.84 45.68 56.88 C 41.83 62.96 35.32 66.73 31.44 72.81 C 26.47 69.98 21.49 67.14 16.55 64.25 C 14.34 62.97 12.63 60.57 12.76 57.95 C 12.61 50.74 12.72 43.52 12.70 36.31 C 22.73 27.51 31.61 17.49 41.32 8.34 C 43.13 6.35 46.24 4.54 45.33 1.39 L 45.32 1.12 Z" />
</g>
<g id="#404983ff">
<path fill="#404983" opacity="1.00" d=" M 16.69 17.72 C 26.18 12.19 35.64 6.55 45.33 1.39 C 46.24 4.54 43.13 6.35 41.32 8.34 C 31.61 17.49 22.73 27.51 12.70 36.31 C 12.73 32.23 12.60 28.15 12.77 24.08 C 12.83 21.45 14.32 18.90 16.69 17.72 Z" />
</g>
<g id="#4d569eff">
<path fill="#4d569e" opacity="1.00" d=" M 67.80 15.73 C 69.14 14.30 70.90 13.42 72.72 12.74 C 77.24 15.93 84.82 17.40 85.25 24.02 C 85.49 34.99 85.34 45.96 85.30 56.93 C 85.50 59.88 83.99 62.86 81.37 64.28 C 72.07 69.68 62.72 75.01 53.38 80.35 C 51.00 81.89 47.78 82.18 45.31 80.70 C 40.66 78.12 36.06 75.44 31.44 72.81 C 35.32 66.73 41.83 62.96 45.68 56.88 C 46.89 58.58 48.09 60.30 49.31 62.01 C 53.55 55.95 57.89 49.96 62.12 43.89 C 57.78 46.38 53.59 49.10 49.17 51.43 C 45.27 49.04 41.27 46.81 37.40 44.38 C 37.83 44.03 38.69 43.33 39.12 42.99 C 42.57 44.92 45.91 47.05 49.36 49.00 C 53.56 46.31 58.05 44.08 62.14 41.21 C 59.59 37.04 57.00 32.90 54.53 28.68 C 59.26 24.68 63.39 20.06 67.80 15.73 Z" />
</g>
<g id="#ffffffff">
<path fill="#ffffff" opacity="1.00" d=" M 36.39 41.37 C 40.82 34.32 44.86 27.01 49.41 20.02 C 51.07 22.94 52.82 25.79 54.53 28.68 C 57.00 32.90 59.59 37.04 62.14 41.21 C 58.05 44.08 53.56 46.31 49.36 49.00 C 45.91 47.05 42.57 44.92 39.12 42.99 C 38.20 42.45 37.29 41.92 36.39 41.37 Z" />
<path fill="#ffffff" opacity="1.00" d=" M 37.01 44.67 L 37.40 44.38 C 41.27 46.81 45.27 49.04 49.17 51.43 C 53.59 49.10 57.78 46.38 62.12 43.89 C 57.89 49.96 53.55 55.95 49.31 62.01 C 48.09 60.30 46.89 58.58 45.68 56.88 C 42.74 52.84 39.89 48.75 37.01 44.67 Z" />
</g>
</svg>
