<?xml version="1.0" encoding="UTF-8" ?>
<!DOCTYPE svg PUBLIC "-//W3C//DTD SVG 1.1//EN" "http://www.w3.org/Graphics/SVG/1.1/DTD/svg11.dtd">
<svg width="422pt" height="447pt" viewBox="0 0 422 447" version="1.1" xmlns="http://www.w3.org/2000/svg">
<g id="#019cddff">
<path fill="#019cdd" opacity="1.00" d=" M 180.57 49.29 C 188.61 46.06 197.37 45.16 205.98 45.51 C 221.87 44.87 237.47 50.58 250.35 59.65 C 260.06 67.06 267.95 76.83 272.86 88.03 C 280.95 106.25 282.25 126.95 279.16 146.48 C 276.81 162.21 272.25 177.55 266.47 192.35 C 265.47 188.38 265.28 184.23 263.87 180.36 C 261.71 171.77 257.14 164.03 251.85 157.03 C 247.27 151.90 241.09 147.18 233.88 147.41 C 228.71 147.95 222.59 150.50 221.44 156.16 C 220.06 164.09 223.14 171.85 225.94 179.13 C 232.29 194.31 241.75 208.08 252.83 220.20 C 258.47 226.60 264.89 232.38 272.11 236.95 C 280.35 242.84 290.49 247.31 300.82 246.14 C 307.44 242.72 316.00 241.86 322.45 246.14 C 329.69 250.91 333.82 258.97 336.75 266.89 C 339.23 273.62 340.82 280.65 342.08 287.70 C 328.43 285.81 315.08 281.76 302.59 275.98 C 311.18 281.78 318.18 289.55 324.75 297.49 C 333.01 308.04 338.79 320.36 342.78 333.10 C 347.83 352.27 349.59 372.24 349.01 392.03 C 348.04 408.33 347.02 424.64 344.70 440.82 C 343.78 430.21 344.87 419.59 344.35 408.96 C 343.39 396.44 342.18 383.80 338.31 371.78 C 331.91 349.07 318.06 329.01 300.96 312.99 L 300.34 315.07 C 285.55 315.64 270.74 315.62 255.95 315.81 C 233.98 316.84 211.95 316.07 189.99 317.22 C 163.11 317.27 136.24 318.11 109.37 318.34 C 109.33 316.50 109.30 314.66 109.26 312.83 C 93.33 327.81 79.99 346.15 73.18 367.09 C 68.49 380.59 66.47 394.83 65.64 409.03 C 65.31 419.35 65.99 429.68 65.28 439.98 C 63.36 426.72 62.31 413.37 61.46 400.01 C 59.80 379.98 61.53 359.79 65.42 340.11 C 68.89 325.17 75.21 310.78 84.44 298.48 C 91.12 290.26 98.29 282.26 107.08 276.23 C 94.52 281.72 81.29 285.93 67.67 287.72 C 71.10 273.90 73.69 258.44 84.66 248.31 C 91.11 242.01 101.46 241.98 109.06 246.14 C 119.49 247.34 129.70 242.79 138.01 236.85 C 150.67 228.84 160.36 217.14 169.32 205.34 C 177.54 193.22 185.08 180.26 188.32 165.83 C 189.24 160.95 189.63 154.98 185.75 151.21 C 180.94 147.22 173.81 146.19 168.21 149.11 C 160.07 152.85 155.10 160.65 150.85 168.17 C 147.06 175.68 144.52 183.87 143.88 192.28 C 138.06 180.02 134.83 166.75 131.74 153.60 C 128.95 141.25 128.68 128.51 129.57 115.93 C 130.54 106.32 133.50 97.03 137.18 88.14 C 139.54 82.56 143.22 77.71 146.73 72.83 C 155.19 61.66 167.58 54.10 180.57 49.29 M 196.83 198.68 C 190.48 213.43 182.53 227.43 173.79 240.87 C 156.79 266.81 134.07 288.17 112.05 309.75 C 141.53 309.30 170.99 308.62 200.48 308.24 C 200.40 294.48 200.40 280.72 199.73 266.99 C 199.41 249.84 199.87 232.67 198.68 215.55 C 201.38 213.99 204.65 214.83 207.61 214.65 C 208.45 245.71 208.38 276.79 209.32 307.83 C 231.20 307.53 253.08 307.39 274.96 307.21 C 281.53 306.66 288.12 306.78 294.71 306.70 C 276.00 287.96 256.32 269.86 241.15 247.99 C 225.76 227.00 214.46 203.33 204.99 179.18 C 202.10 185.61 199.87 192.32 196.83 198.68 Z" />
<path fill="#019cdd" opacity="1.00" d=" M 172.53 348.14 C 194.53 347.78 216.53 347.09 238.53 346.77 C 238.62 349.58 238.67 352.39 238.71 355.21 C 216.69 355.75 194.66 356.00 172.64 356.35 C 172.58 353.61 172.52 350.88 172.53 348.14 Z" />
</g>
</svg>
