<?xml version="1.0" encoding="UTF-8" ?>
<!DOCTYPE svg PUBLIC "-//W3C//DTD SVG 1.1//EN" "http://www.w3.org/Graphics/SVG/1.1/DTD/svg11.dtd">
<svg width="102pt" height="97pt" viewBox="0 0 102 97" version="1.1" xmlns="http://www.w3.org/2000/svg">
<g id="#0b8dc4ff">
<path fill="#0b8dc4" opacity="1.00" d=" M 49.42 9.47 C 51.99 8.71 54.48 10.09 56.65 11.32 C 65.54 16.48 74.51 21.50 83.38 26.70 C 86.00 28.11 87.37 31.10 87.23 34.01 C 87.32 44.01 87.19 54.02 87.26 64.02 C 87.15 66.37 87.44 69.02 85.89 70.99 C 84.62 72.76 82.60 73.72 80.78 74.81 C 72.27 79.61 63.85 84.55 55.34 89.34 C 52.96 90.84 49.85 91.17 47.37 89.70 C 38.13 84.65 29.10 79.22 19.90 74.10 C 17.23 72.72 14.56 70.30 14.81 67.02 C 14.66 56.34 14.71 45.66 14.69 34.98 C 14.58 32.06 15.24 28.73 17.92 27.08 C 26.54 21.95 35.34 17.12 44.02 12.06 C 45.75 11.07 47.47 9.99 49.42 9.47 M 32.36 33.71 C 35.97 37.73 39.83 41.51 43.56 45.41 C 47.19 49.38 54.07 49.74 57.92 45.90 C 62.05 42.00 65.75 37.67 69.86 33.74 C 68.00 33.76 66.14 33.77 64.28 33.80 C 61.29 36.69 58.59 39.87 55.56 42.71 C 53.15 45.13 48.77 45.16 46.45 42.61 C 43.55 39.72 40.62 36.85 37.94 33.76 C 36.08 33.73 34.22 33.72 32.36 33.71 M 43.53 54.62 C 39.76 58.60 35.84 62.44 32.18 66.53 C 34.00 66.51 35.82 66.50 37.65 66.48 C 40.47 63.33 43.44 60.33 46.45 57.37 C 48.80 54.83 53.18 54.87 55.58 57.30 C 58.73 60.25 61.50 63.59 64.70 66.50 C 66.48 66.49 68.27 66.49 70.06 66.49 C 65.86 62.48 62.09 58.05 57.89 54.05 C 54.01 50.25 47.16 50.64 43.53 54.62 Z" />
</g>
<g id="#ffffffff">
<path fill="#ffffff" opacity="1.00" d=" M 32.36 33.71 C 34.22 33.72 36.08 33.73 37.94 33.76 C 40.62 36.85 43.55 39.72 46.45 42.61 C 48.77 45.16 53.15 45.13 55.56 42.71 C 58.59 39.87 61.29 36.69 64.28 33.80 C 66.14 33.77 68.00 33.76 69.86 33.74 C 65.75 37.67 62.05 42.00 57.92 45.90 C 54.07 49.74 47.19 49.38 43.56 45.41 C 39.83 41.51 35.97 37.73 32.36 33.71 Z" />
<path fill="#ffffff" opacity="1.00" d=" M 43.53 54.62 C 47.16 50.64 54.01 50.25 57.89 54.05 C 62.09 58.05 65.86 62.48 70.06 66.49 C 68.27 66.49 66.48 66.49 64.70 66.50 C 61.50 63.59 58.73 60.25 55.58 57.30 C 53.18 54.87 48.80 54.83 46.45 57.37 C 43.44 60.33 40.47 63.33 37.65 66.48 C 35.82 66.50 34.00 66.51 32.18 66.53 C 35.84 62.44 39.76 58.60 43.53 54.62 Z" />
</g>
</svg>
